<svg class="dm-svg-logo" aria-label="Dan Mall" xmlns="http://www.w3.org/2000/svg" viewBox="0 0 56 52.9"><path class="dm-svg-logo_fill" d="M26.3 0H0v11.34h1.81c.76 0 2.04 1.28 2.04 2.04V39.9c0 .76-1.28 2.04-2.04 2.04H0V52.9h25.7C47.23 52.9 56 43.53 56 26 56 8.46 47.54 0 26.3 0zm2.04 35.09c-1.9 2.08-3.41 4.29-5.23 6.14-.76.78-1.65 1.97-2.71 1.64-.08-.18-.15-.36-.23-.55.37-1.06 1.49-1.68 2.18-2.3l1.55-1.7c.89-.85 1.85-1.52 2.76-2.57 1.23-1.43 2.02-3.36 2.52-4.91.25-.56.5-1.11.76-1.67 1.14-4.17 1.14-8.03-.65-11.4-.02.01-.05.01-.07.02.11.55.55 1.17.59 1.71.25 3.22.04 7.59-1.3 11.14-.34.9-1.62 4.21-2.53 4.61-.12.03-.24.07-.35.1-.94-.76-.85-3.42-.97-4.54-.52-4.93.72-10.42.29-15.41-.16-1.9-1.15-6.01-4.03-4.83-1.85.76-.96 2.77-1.73 3.62-.6.66-1.6.92-2.3 1.34l-.27-.15c.46-.66 1.28-.99 1.85-1.71.43-.55.32-1.07.45-1.54.46-1.7 2.1-2.71 3.14-2.95 2.72-.61 6.24 3.91 7.43 5.36 4.85 5.93 5.58 13.18-1.15 20.55zm-7.38-22.96c.25-.44.81-.6 1.25-.35.44.25.6.8.35 1.24-.25.44-.8.6-1.24.35a.9.9 0 01-.36-1.24z"/></svg>